<svg width="48" height="48" viewBox="0 0 48 48" fill="none" xmlns="http://www.w3.org/2000/svg">
<path d="M43.42 40.58L36 33.22C38.8802 29.6288 40.275 25.0706 39.8976 20.4826C39.5202 15.8946 37.3993 11.6256 33.971 8.55329C30.5427 5.48101 26.0676 3.83902 21.4658 3.96494C16.8641 4.09086 12.4854 5.97512 9.23029 9.23028C5.97513 12.4854 4.09087 16.8641 3.96494 21.4658C3.83902 26.0676 5.48102 30.5427 8.55329 33.971C11.6256 37.3993 15.8946 39.5202 20.4826 39.8976C25.0706 40.275 29.6288 38.8802 33.22 36L40.58 43.36C40.7659 43.5475 40.9871 43.6962 41.2309 43.7978C41.4746 43.8993 41.736 43.9516 42 43.9516C42.264 43.9516 42.5254 43.8993 42.7692 43.7978C43.0129 43.6962 43.2341 43.5475 43.42 43.36C43.7805 42.9871 43.982 42.4887 43.982 41.97C43.982 41.4513 43.7805 40.9529 43.42 40.58ZM22 36C19.2311 36 16.5243 35.1789 14.222 33.6406C11.9197 32.1022 10.1253 29.9157 9.06569 27.3576C8.00606 24.7994 7.72882 21.9845 8.26901 19.2687C8.8092 16.553 10.1426 14.0584 12.1005 12.1005C14.0584 10.1426 16.553 8.8092 19.2687 8.26901C21.9845 7.72881 24.7994 8.00606 27.3576 9.06569C29.9157 10.1253 32.1022 11.9197 33.6406 14.222C35.1789 16.5243 36 19.2311 36 22C36 25.713 34.525 29.274 31.8995 31.8995C29.274 34.525 25.713 36 22 36Z" fill="#2E2E2E"/>
<path d="M32 15.8C31.2483 16.1261 30.4534 16.3417 29.64 16.44C30.4982 15.9273 31.1413 15.1208 31.45 14.17C30.6436 14.6501 29.7608 14.9883 28.84 15.17C28.2245 14.5026 27.405 14.0583 26.5098 13.9069C25.6147 13.7554 24.6945 13.9054 23.8938 14.3332C23.093 14.761 22.4569 15.4425 22.0852 16.2708C21.7135 17.0991 21.6273 18.0274 21.84 18.91C20.2094 18.8275 18.6144 18.403 17.1587 17.6639C15.7029 16.9248 14.4188 15.8877 13.39 14.62C13.0291 15.2502 12.8395 15.9638 12.84 16.69C12.8387 17.3644 13.0042 18.0286 13.3218 18.6236C13.6393 19.2185 14.099 19.7257 14.66 20.1C14.008 20.0823 13.3699 19.9073 12.8 19.59V19.64C12.8049 20.5849 13.136 21.4991 13.7373 22.228C14.3386 22.9568 15.1733 23.4556 16.1 23.64C15.7433 23.7486 15.3729 23.8058 15 23.81C14.7419 23.807 14.4844 23.7836 14.23 23.74C14.4939 24.5528 15.0046 25.2631 15.6911 25.7722C16.3775 26.2812 17.2056 26.5636 18.06 26.58C16.6172 27.7153 14.8359 28.3349 13 28.34C12.6657 28.3411 12.3317 28.3211 12 28.28C13.8744 29.4903 16.0588 30.1327 18.29 30.13C19.8297 30.146 21.3571 29.855 22.7831 29.2741C24.2091 28.6931 25.505 27.8339 26.5952 26.7465C27.6854 25.6591 28.548 24.3654 29.1326 22.9409C29.7172 21.5164 30.012 19.9897 30 18.45V17.92C30.7847 17.3348 31.4615 16.6174 32 15.8Z" fill="#55ACEE"/>
</svg>
